# xmcd
#
# Track frame offsets:
#	150
#	15562
#	25812
#	40407
#	50817
#	61737
#	73347
#	84970
#	97287
#	106995
#
# Disc length: 1579 seconds
#
# Revision: 4
# Processed by: cddbd v1.5.2PL0 Copyright (c) Steve Scherf et al.
# Submitted via: EasyCDDAExtractor 10.5.1.1
#
DISCID=8506290a
DTITLE=Tammy Wynette - Christmas With Tammy Wynette
DYEAR=1998
DGENRE=Country
TTITLE0=Silent Night, Holy Night
TTITLE1=O Little Town Of Bethlehem
TTITLE2=It Came Upon A Midnight Clear
TTITLE3=Joy To The World
TTITLE4=Away In A Manger
TTITLE5=Blue Christmas
TTITLE6=(Merry Christmas) We Must Be Having One
TTITLE7=White Christmas
TTITLE8=One Happy Christmas
TTITLE9=Let's Put Christ Back In Christmas
EXTD=\nYEAR: 2000  ID3G:  17
EXTT0=
EXTT1=
EXTT2=
EXTT3=
EXTT4=
EXTT5=
EXTT6=
EXTT7=
EXTT8=
EXTT9=
PLAYORDER=
